<svg width="30" height="28" fill="none" xmlns="http://www.w3.org/2000/svg"><path d="M9 22.222c-1.65 0-2.985 1.25-2.985 2.778S7.35 27.778 9 27.778s3-1.25 3-2.778-1.35-2.778-3-2.778ZM0 0v2.778h3l5.4 10.541-2.025 3.403c-.24.39-.375.847-.375 1.334 0 1.527 1.35 2.777 3 2.777h18v-2.777H9.63c-.21 0-.375-.153-.375-.348l.045-.166 1.35-2.264h11.175c1.125 0 2.115-.57 2.625-1.43l5.37-9.015c.12-.194.18-.43.18-.666 0-.764-.675-1.39-1.5-1.39H6.315L4.905 0H0Zm24 22.222c-1.65 0-2.985 1.25-2.985 2.778S22.35 27.778 24 27.778s3-1.25 3-2.778-1.35-2.778-3-2.778Z" fill="#000"/></svg>