<svg width="30" height="28" fill="none" xmlns="http://www.w3.org/2000/svg"><path d="M21.75 0C19.14 0 16.635 1.226 15 3.164 13.365 1.226 10.86 0 8.25 0 3.63 0 0 3.663 0 8.326c0 5.722 5.1 10.384 12.825 17.469L15 27.778l2.175-1.998C24.9 18.71 30 14.048 30 8.326 30 3.663 26.37 0 21.75 0Zm-6.6 23.54-.15.15-.15-.15C7.71 17.014 3 12.7 3 8.325c0-3.028 2.25-5.298 5.25-5.298 2.31 0 4.56 1.498 5.355 3.572h2.805c.78-2.074 3.03-3.572 5.34-3.572 3 0 5.25 2.27 5.25 5.298 0 4.375-4.71 8.689-11.85 15.213Z" fill="#000"/></svg>