<svg width="21" height="20" fill="none" xmlns="http://www.w3.org/2000/svg"><path d="M15.415 0c-1.744 0-3.42.883-4.512 2.278C9.809.883 8.135 0 6.39 0 3.3 0 .874 2.638.874 5.995c0 4.12 3.41 7.476 8.574 12.577L10.903 20l1.454-1.439c5.165-5.09 8.574-8.447 8.574-12.566C20.931 2.638 18.504 0 15.415 0Zm-4.412 16.948-.1.11-.1-.11C6.028 12.251 2.88 9.144 2.88 5.995c0-2.18 1.504-3.815 3.51-3.815 1.544 0 3.048 1.079 3.58 2.572h1.875c.522-1.493 2.026-2.572 3.57-2.572 2.006 0 3.51 1.635 3.51 3.815 0 3.15-3.149 6.256-7.922 10.953Z" fill="#000"/></svg>